<svg xmlns="http://www.w3.org/2000/svg" viewBox="0 0 32 32" fill="none">
  <defs>
    <linearGradient id="grad" x1="0%" y1="0%" x2="100%" y2="100%">
      <stop offset="0%" style="stop-color:#3B82F6;stop-opacity:1" />
      <stop offset="100%" style="stop-color:#7C3AED;stop-opacity:1" />
    </linearGradient>
  </defs>
  <!-- Document body -->
  <rect x="4" y="2" width="18" height="24" rx="2" fill="url(#grad)" />
  <!-- Folded corner -->
  <path d="M18 2 L22 6 L18 6 Z" fill="white" opacity="0.3" />
  <!-- Document lines -->
  <rect x="7" y="10" width="10" height="1.5" rx="0.75" fill="white" opacity="0.7" />
  <rect x="7" y="14" width="8" height="1.5" rx="0.75" fill="white" opacity="0.7" />
  <rect x="7" y="18" width="6" height="1.5" rx="0.75" fill="white" opacity="0.5" />
  <!-- Arrow circle (conversion indicator) -->
  <circle cx="23" cy="23" r="7" fill="white" />
  <circle cx="23" cy="23" r="6" fill="url(#grad)" />
  <!-- Arrow path -->
  <path d="M20 23 C20 21.3 21.3 20 23 20 L23 18.5 L25.5 21 L23 23.5 L23 22 C22.2 22 21.5 22.7 21.5 23.5 C21.5 24.3 22.2 25 23 25 L23 26.5 C21.3 26.5 20 25.2 20 23.5 Z" fill="white" />
  <path d="M26 23 C26 24.7 24.7 26 23 26 L23 27.5 L20.5 25 L23 22.5 L23 24 C23.8 24 24.5 23.3 24.5 22.5 C24.5 21.7 23.8 21 23 21 L23 19.5 C24.7 19.5 26 20.8 26 22.5 Z" fill="white" opacity="0.85"/>
</svg>
